<svg id="visual" viewBox="0 0 960 540" width="960" height="540" xmlns="http://www.w3.org/2000/svg" xmlns:xlink="http://www.w3.org/1999/xlink" version="1.1"><rect x="0" y="0" width="960" height="540" fill="#001122"></rect><defs><linearGradient id="grad1_0" x1="43.8%" y1="100%" x2="100%" y2="0%"><stop offset="14.444444444444446%" stop-color="#fbae3c" stop-opacity="1"></stop><stop offset="85.55555555555554%" stop-color="#fbae3c" stop-opacity="1"></stop></linearGradient></defs><defs><linearGradient id="grad1_1" x1="43.8%" y1="100%" x2="100%" y2="0%"><stop offset="14.444444444444446%" stop-color="#fbae3c" stop-opacity="1"></stop><stop offset="85.55555555555554%" stop-color="#f07d51" stop-opacity="1"></stop></linearGradient></defs><defs><linearGradient id="grad1_2" x1="43.8%" y1="100%" x2="100%" y2="0%"><stop offset="14.444444444444446%" stop-color="#cd5864" stop-opacity="1"></stop><stop offset="85.55555555555554%" stop-color="#f07d51" stop-opacity="1"></stop></linearGradient></defs><defs><linearGradient id="grad1_3" x1="43.8%" y1="100%" x2="100%" y2="0%"><stop offset="14.444444444444446%" stop-color="#cd5864" stop-opacity="1"></stop><stop offset="85.55555555555554%" stop-color="#98426a" stop-opacity="1"></stop></linearGradient></defs><defs><linearGradient id="grad1_4" x1="43.8%" y1="100%" x2="100%" y2="0%"><stop offset="14.444444444444446%" stop-color="#5d3560" stop-opacity="1"></stop><stop offset="85.55555555555554%" stop-color="#98426a" stop-opacity="1"></stop></linearGradient></defs><defs><linearGradient id="grad1_5" x1="43.8%" y1="100%" x2="100%" y2="0%"><stop offset="14.444444444444446%" stop-color="#5d3560" stop-opacity="1"></stop><stop offset="85.55555555555554%" stop-color="#272646" stop-opacity="1"></stop></linearGradient></defs><defs><linearGradient id="grad1_6" x1="43.8%" y1="100%" x2="100%" y2="0%"><stop offset="14.444444444444446%" stop-color="#001122" stop-opacity="1"></stop><stop offset="85.55555555555554%" stop-color="#272646" stop-opacity="1"></stop></linearGradient></defs><defs><linearGradient id="grad2_0" x1="0%" y1="100%" x2="56.3%" y2="0%"><stop offset="14.444444444444446%" stop-color="#fbae3c" stop-opacity="1"></stop><stop offset="85.55555555555554%" stop-color="#fbae3c" stop-opacity="1"></stop></linearGradient></defs><defs><linearGradient id="grad2_1" x1="0%" y1="100%" x2="56.3%" y2="0%"><stop offset="14.444444444444446%" stop-color="#f07d51" stop-opacity="1"></stop><stop offset="85.55555555555554%" stop-color="#fbae3c" stop-opacity="1"></stop></linearGradient></defs><defs><linearGradient id="grad2_2" x1="0%" y1="100%" x2="56.3%" y2="0%"><stop offset="14.444444444444446%" stop-color="#f07d51" stop-opacity="1"></stop><stop offset="85.55555555555554%" stop-color="#cd5864" stop-opacity="1"></stop></linearGradient></defs><defs><linearGradient id="grad2_3" x1="0%" y1="100%" x2="56.3%" y2="0%"><stop offset="14.444444444444446%" stop-color="#98426a" stop-opacity="1"></stop><stop offset="85.55555555555554%" stop-color="#cd5864" stop-opacity="1"></stop></linearGradient></defs><defs><linearGradient id="grad2_4" x1="0%" y1="100%" x2="56.3%" y2="0%"><stop offset="14.444444444444446%" stop-color="#98426a" stop-opacity="1"></stop><stop offset="85.55555555555554%" stop-color="#5d3560" stop-opacity="1"></stop></linearGradient></defs><defs><linearGradient id="grad2_5" x1="0%" y1="100%" x2="56.3%" y2="0%"><stop offset="14.444444444444446%" stop-color="#272646" stop-opacity="1"></stop><stop offset="85.55555555555554%" stop-color="#5d3560" stop-opacity="1"></stop></linearGradient></defs><defs><linearGradient id="grad2_6" x1="0%" y1="100%" x2="56.3%" y2="0%"><stop offset="14.444444444444446%" stop-color="#272646" stop-opacity="1"></stop><stop offset="85.55555555555554%" stop-color="#001122" stop-opacity="1"></stop></linearGradient></defs><g transform="translate(960, 540)"><path d="M-540 0C-508.6 -23.8 -477.2 -47.6 -467.2 -74C-457.2 -100.4 -468.6 -129.3 -457.5 -148.6C-446.3 -168 -412.7 -177.8 -414.3 -211.1C-415.9 -244.4 -452.8 -301.3 -436.9 -317.4C-421 -333.5 -352.4 -308.7 -330.2 -330.2C-308.1 -351.7 -332.4 -419.5 -316.2 -435.3C-300 -451 -243.2 -414.8 -209.3 -410.8C-175.4 -406.7 -164.3 -434.8 -145.5 -447.9C-126.8 -461.1 -100.3 -459.3 -74.8 -472.1C-49.2 -485 -24.6 -512.5 0 -540L0 0Z" fill="#111c34"></path><path d="M-462.9 0C-435.9 -20.4 -409 -40.8 -400.4 -63.4C-391.9 -86 -401.6 -110.8 -392.1 -127.4C-382.6 -144 -353.8 -152.4 -355.1 -180.9C-356.5 -209.5 -388.1 -258.3 -374.5 -272.1C-360.8 -285.8 -302 -264.6 -283 -283C-264.1 -301.5 -285 -359.6 -271.1 -373.1C-257.2 -386.6 -208.5 -355.6 -179.4 -352.1C-150.3 -348.6 -140.8 -372.7 -124.8 -384C-108.7 -395.2 -86 -393.7 -64.1 -404.7C-42.2 -415.7 -21.1 -439.3 0 -462.9L0 0Z" fill="#412e55"></path><path d="M-385.7 0C-363.3 -17 -340.8 -34 -333.7 -52.9C-326.6 -71.7 -334.7 -92.3 -326.8 -106.2C-318.8 -120 -294.8 -127 -295.9 -150.8C-297.1 -174.6 -323.4 -215.2 -312 -226.7C-300.7 -238.2 -251.7 -220.5 -235.9 -235.9C-220.1 -251.2 -237.5 -299.6 -225.9 -310.9C-214.3 -322.2 -173.7 -296.3 -149.5 -293.4C-125.3 -290.5 -117.4 -310.6 -104 -320C-90.6 -329.3 -71.7 -328 -53.4 -337.2C-35.2 -346.4 -17.6 -366.1 0 -385.7L0 0Z" fill="#7b3b68"></path><path d="M-308.6 0C-290.6 -13.6 -272.7 -27.2 -267 -42.3C-261.2 -57.3 -267.8 -73.9 -261.4 -84.9C-255.1 -96 -235.8 -101.6 -236.8 -120.6C-237.7 -139.7 -258.7 -172.2 -249.6 -181.4C-240.6 -190.6 -201.3 -176.4 -188.7 -188.7C-176 -201 -190 -239.7 -180.7 -248.7C-171.4 -257.7 -139 -237 -119.6 -234.7C-100.2 -232.4 -93.9 -248.5 -83.2 -256C-72.4 -263.5 -57.3 -262.4 -42.7 -269.8C-28.1 -277.1 -14.1 -292.8 0 -308.6L0 0Z" fill="#b44b69"></path><path d="M-231.4 0C-218 -10.2 -204.5 -20.4 -200.2 -31.7C-195.9 -43 -200.8 -55.4 -196.1 -63.7C-191.3 -72 -176.9 -76.2 -177.6 -90.5C-178.3 -104.8 -194 -129.1 -187.2 -136C-180.4 -142.9 -151 -132.3 -141.5 -141.5C-132 -150.7 -142.5 -179.8 -135.5 -186.5C-128.6 -193.3 -104.2 -177.8 -89.7 -176C-75.2 -174.3 -70.4 -186.3 -62.4 -192C-54.3 -197.6 -43 -196.8 -32 -202.3C-21.1 -207.8 -10.6 -219.6 0 -231.4L0 0Z" fill="#e1685b"></path><path d="M-154.3 0C-145.3 -6.8 -136.3 -13.6 -133.5 -21.1C-130.6 -28.7 -133.9 -36.9 -130.7 -42.5C-127.5 -48 -117.9 -50.8 -118.4 -60.3C-118.8 -69.8 -129.4 -86.1 -124.8 -90.7C-120.3 -95.3 -100.7 -88.2 -94.3 -94.3C-88 -100.5 -95 -119.9 -90.4 -124.4C-85.7 -128.9 -69.5 -118.5 -59.8 -117.4C-50.1 -116.2 -46.9 -124.2 -41.6 -128C-36.2 -131.7 -28.7 -131.2 -21.4 -134.9C-14.1 -138.6 -7 -146.4 0 -154.3L0 0Z" fill="#f99446"></path><path d="M-77.1 0C-72.7 -3.4 -68.2 -6.8 -66.7 -10.6C-65.3 -14.3 -66.9 -18.5 -65.4 -21.2C-63.8 -24 -59 -25.4 -59.2 -30.2C-59.4 -34.9 -64.7 -43 -62.4 -45.3C-60.1 -47.6 -50.3 -44.1 -47.2 -47.2C-44 -50.2 -47.5 -59.9 -45.2 -62.2C-42.9 -64.4 -34.7 -59.3 -29.9 -58.7C-25.1 -58.1 -23.5 -62.1 -20.8 -64C-18.1 -65.9 -14.3 -65.6 -10.7 -67.4C-7 -69.3 -3.5 -73.2 0 -77.1L0 0Z" fill="#fbae3c"></path></g><g transform="translate(0, 0)"><path d="M540 0C509.4 24.4 478.8 48.8 468.2 74.1C457.5 99.5 466.8 125.8 468.9 152.3C470.9 178.9 465.7 205.6 461.5 235.2C457.4 264.7 454.2 297 436.9 317.4C419.5 337.8 387.9 346.2 367.7 367.7C347.5 389.2 338.7 423.7 312.7 430.4C286.7 437.1 243.6 416.1 217.5 426.8C191.4 437.5 182.3 479.8 162.2 499.3C142.1 518.8 111 515.6 82.1 518.5C53.2 521.5 26.6 530.8 0 540L0 0Z" fill="#111c34"></path><path d="M462.9 0C436.6 20.9 410.4 41.8 401.3 63.6C392.2 85.3 400.1 107.8 401.9 130.6C403.6 153.3 399.2 176.3 395.6 201.6C392 226.9 389.3 254.6 374.5 272.1C359.6 289.5 332.5 296.8 315.2 315.2C297.8 333.6 290.3 363.1 268 368.9C245.8 374.7 208.8 356.7 186.4 365.8C164 375 156.3 411.2 139.1 428C121.8 444.7 95.2 441.9 70.4 444.5C45.6 447 22.8 454.9 0 462.9L0 0Z" fill="#412e55"></path><path d="M385.7 0C363.9 17.4 342 34.9 334.4 53C326.8 71.1 333.4 89.9 334.9 108.8C336.4 127.8 332.7 146.9 329.7 168C326.7 189.1 324.5 212.2 312 226.7C299.6 241.3 277.1 247.3 262.6 262.6C248.2 278 241.9 302.6 223.4 307.4C204.8 312.2 174 297.2 155.3 304.9C136.7 312.5 130.2 342.7 115.9 356.6C101.5 370.6 79.3 368.3 58.7 370.4C38 372.5 19 379.1 0 385.7L0 0Z" fill="#7b3b68"></path><path d="M308.6 0C291.1 13.9 273.6 27.9 267.5 42.4C261.4 56.9 266.8 71.9 267.9 87.1C269.1 102.2 266.1 117.5 263.7 134.4C261.4 151.3 259.6 169.7 249.6 181.4C239.7 193 221.7 197.8 210.1 210.1C198.6 222.4 193.5 242.1 178.7 245.9C163.8 249.8 139.2 237.8 124.3 243.9C109.3 250 104.2 274.2 92.7 285.3C81.2 296.5 63.4 294.6 46.9 296.3C30.4 298 15.2 303.3 0 308.6L0 0Z" fill="#b44b69"></path><path d="M231.4 0C218.3 10.5 205.2 20.9 200.6 31.8C196.1 42.6 200.1 53.9 200.9 65.3C201.8 76.7 199.6 88.1 197.8 100.8C196 113.4 194.7 127.3 187.2 136C179.8 144.8 166.2 148.4 157.6 157.6C148.9 166.8 145.2 181.6 134 184.5C122.9 187.3 104.4 178.3 93.2 182.9C82 187.5 78.1 205.6 69.5 214C60.9 222.4 47.6 221 35.2 222.2C22.8 223.5 11.4 227.5 0 231.4L0 0Z" fill="#e1685b"></path><path d="M154.3 0C145.5 7 136.8 13.9 133.8 21.2C130.7 28.4 133.4 35.9 134 43.5C134.5 51.1 133.1 58.8 131.9 67.2C130.7 75.6 129.8 84.9 124.8 90.7C119.9 96.5 110.8 98.9 105.1 105.1C99.3 111.2 96.8 121 89.3 123C81.9 124.9 69.6 118.9 62.1 121.9C54.7 125 52.1 137.1 46.4 142.7C40.6 148.2 31.7 147.3 23.5 148.2C15.2 149 7.6 151.6 0 154.3L0 0Z" fill="#f99446"></path><path d="M77.1 0C72.8 3.5 68.4 7 66.9 10.6C65.4 14.2 66.7 18 67 21.8C67.3 25.6 66.5 29.4 65.9 33.6C65.3 37.8 64.9 42.4 62.4 45.3C59.9 48.3 55.4 49.5 52.5 52.5C49.6 55.6 48.4 60.5 44.7 61.5C41 62.4 34.8 59.4 31.1 61C27.3 62.5 26 68.5 23.2 71.3C20.3 74.1 15.9 73.7 11.7 74.1C7.6 74.5 3.8 75.8 0 77.1L0 0Z" fill="#fbae3c"></path></g></svg>